# xmcd
#
# Track frame offsets:
#	150
#	11776
#	22423
#	34964
#	49033
#	59943
#	69857
#	81621
#	94461
#	103765
#	117346
#	127824
#	135875
#	145329
#	162438
#	173482
#	188726
#	200313
#	211342
#	221189
#	237830
#	252882
#	267650
#	280622
#	291796
#	305190
#	320721
#	332448
#	346922
#
# Disc length: 4771 seconds
#
# Revision: 1
# Processed by: cddbd v1.5.2PL0 Copyright (c) Steve Scherf et al.
# Submitted via: audiograbber 1.83.01
#
DISCID=c812a11d
DTITLE=Diverse - Country Western 1995 - 1980 CD-4
DYEAR=1900
DGENRE=Country
TTITLE0=Roy Orbison - Leah
TTITLE1=Big Bopper - Chantiuy Lace
TTITLE2=Marty Robbins - The Hanging Tree
TTITLE3=The Platters - Harbour Lights
TTITLE4=Chris Montez - Let´s dance
TTITLE5=Frankie Avalon - De de dinah
TTITLE6=Johonny Otis - Willie And The Hand Jive
TTITLE7=Ray Stevens - Misty
TTITLE8=Buzz Clifford - Babysitting Boogie
TTITLE9=Jimmy Dean - Big Bad John
TTITLE10=Bobby Fuller - I Fought The Law
TTITLE11=Johnny Cash - Guess Things Happen That Way
TTITLE12=Ed Byrnies - Kokkie Kookie Lend Me Your Combe
TTITLE13=Kenny Rogers - Something´s Burning
TTITLE14=Little Richard - Lucille
TTITLE15=Ronnie Hawkins - Let It Rock
TTITLE16=Brenda Lee - As Usual
TTITLE17=Jimmy Dickens - Wabash Cannonball
TTITLE18=Teresa Brewer - Alexander´s Ragtime Band
TTITLE19=Johnny Cash - Ghost Riders In The Sky
TTITLE20=Airsupply - Can´t Live If Living Is Without You
TTITLE21=Dueling Banjos - Dueling Banjos
TTITLE22=Johnny Tillitson - Send Me The Pillow That You Dream On
TTITLE23=The Drifters - Save The Last Dance For Me
TTITLE24=Frankie Lane - Moonlight Gambler
TTITLE25=Roy Clark - Yesterday When I Was Young
TTITLE26=Don Gibson - I Can´t Stop Loving You
TTITLE27=Smokey Robinson - I Don´t Blame You At All
TTITLE28=Rodger Miller - King Of The Road
EXTD=
EXTT0=
EXTT1=
EXTT2=
EXTT3=
EXTT4=
EXTT5=
EXTT6=
EXTT7=
EXTT8=
EXTT9=
EXTT10=
EXTT11=
EXTT12=
EXTT13=
EXTT14=
EXTT15=
EXTT16=
EXTT17=
EXTT18=
EXTT19=
EXTT20=
EXTT21=
EXTT22=
EXTT23=
EXTT24=
EXTT25=
EXTT26=
EXTT27=
EXTT28=
PLAYORDER=
